<svg xmlns:xlink="http://www.w3.org/1999/xlink" xmlns="http://www.w3.org/2000/svg" class="partnerLogo-0-3-195" width="40" height="40" viewBox="0 0 40 40" fill="none"><g fill="none"><path d="M29.1225 2.13098C28.1276 1.62281 27.2017 1.98661 26.7372 2.97552C26.3225 3.8576 26.5731 4.70791 27.4141 5.11935C28.3372 5.57411 29.2793 5.2002 29.7848 4.28347C30.2536 3.44471 30.0426 2.59728 29.1225 2.13098ZM29.1635 4.04094C28.724 4.81041 28.0969 5.14823 27.6266 4.90714C27.1562 4.66604 27.0273 3.9702 27.4024 3.14876C27.7775 2.32732 28.3137 1.99094 28.9379 2.30855C29.5298 2.61749 29.5665 3.31045 29.1635 4.04094Z" fill="#3A3A1F"></path><path d="M39.5847 18.478L36.8082 18.6801L36.6734 19.2359L36.5357 19.246C36.5064 18.3596 36.4023 17.5266 36.4023 17.5266L36.5489 17.5151L36.7628 18.0449L39.5466 17.8356L39.4836 17.1397L38.7686 16.9477L38.754 16.7514L39.7019 16.6792C39.8368 17.6463 39.9107 18.6207 39.9232 19.5968L38.9811 19.6676L38.9649 19.4669L39.6404 19.1652L39.5847 18.478Z" fill="#3A3A1F"></path><path d="M36.4305 16.1279L37.163 16.203L37.2216 16.4137L36.4129 16.5841L36.3733 16.5162C36.1913 16.2281 36.0489 15.9174 35.9499 15.5923C35.6686 14.5991 36.1169 13.8931 37.1147 13.5712C38.1652 13.2276 39.0268 13.7574 39.3257 14.8488C39.4136 15.1967 39.455 15.5544 39.4487 15.9128L38.6326 16.1221L38.5769 15.9085L39.163 15.5013C39.1612 15.3977 39.1455 15.2948 39.1161 15.1953C38.8568 14.2699 38.1682 13.9148 37.3037 14.2035C36.4392 14.4922 36.0729 15.0423 36.2898 15.8247C36.323 15.924 36.3641 16.0206 36.4129 16.1135L36.4305 16.1279Z" fill="#3A3A1F"></path><path d="M37.9526 11.1155L37.8324 10.8455L34.4025 11.0347L34.0742 10.7676L33.9453 10.8383C33.9453 10.8383 34.2574 11.3378 34.5167 11.807L34.6486 11.7449L34.6325 11.3292L35.6684 11.2541L36.1314 12.1636L35.4383 12.8854L35.1101 12.6256L34.9827 12.6876C34.9827 12.6876 35.2552 13.3084 35.5336 13.9869L35.661 13.9278L35.6479 13.5134L37.9526 11.1155ZM35.9262 11.2223L37.176 11.14L36.2969 11.986L35.9262 11.2223Z" fill="#3A3A1F"></path><path d="M36.096 8.09716L35.2169 6.96533L35.0997 7.04762L35.1979 7.48072L33.0499 9.12649L32.6675 8.91138L32.5547 8.99367C32.5547 8.99367 33.0235 9.57114 33.4572 10.1486L33.5671 10.0663L33.4587 9.63321L34.3202 8.98934L34.5268 9.26941C34.9884 9.89307 35.6154 10.0721 36.1209 9.71406C36.2364 9.63578 36.3304 9.53068 36.3948 9.40806C36.4592 9.28543 36.492 9.14906 36.4902 9.011C36.4902 8.73093 36.3949 8.49128 36.096 8.09716ZM36.0418 8.69772C36.0204 8.79835 35.9789 8.8938 35.9198 8.97854C35.8607 9.06329 35.7852 9.13565 35.6975 9.19145C35.6021 9.26076 35.4925 9.30879 35.3764 9.33222C35.2603 9.35566 35.1404 9.35393 35.025 9.32716C34.8653 9.28818 34.7554 9.20445 34.5928 8.98501L34.4946 8.86086L35.6799 7.9398L35.8792 8.18667C35.9443 8.25383 35.9928 8.33487 36.021 8.42349C36.0492 8.51212 36.0563 8.60595 36.0418 8.69772Z" fill="#3A3A1F"></path><path d="M31.4981 6.54912L33.8189 5.50824L34.575 6.26183L34.4827 6.36577L34.0431 6.22141L32.1384 8.15014L32.3523 8.56158L32.2556 8.66552C31.7516 8.16169 31.252 7.68961 31.252 7.68961L31.3428 7.57556L31.7633 7.71126L33.2915 6.10591L30.7391 7.24063L30.6454 7.15545L31.4131 4.49335L30.0168 6.21708L30.2087 6.61264L30.112 6.71803L29.1465 6.03084L29.2388 5.92834L29.6783 6.07271L31.4234 3.9924L31.2139 3.57951L31.3106 3.47412L32.1897 4.11799L31.4981 6.54912Z" fill="#3A3A1F"></path><path d="M25.1706 3.85855L25.6102 3.27387L25.827 3.33306L25.5721 4.10397H25.4915C25.1457 4.11182 24.8005 4.07197 24.4659 3.98559C23.4784 3.71996 23.0461 2.9606 23.2747 1.96447C23.5106 0.926478 24.2549 0.438521 25.5267 0.728697C25.8653 0.820008 26.189 0.958558 26.4878 1.14014L26.2695 1.92982L26.0497 1.88218L25.9941 1.16035C25.9103 1.11999 25.823 1.08714 25.7333 1.06218C24.6505 0.77345 24.1142 1.30183 23.9282 2.11172C23.7333 2.95482 24.0747 3.59147 24.8439 3.79792C24.9514 3.82769 25.062 3.84513 25.1736 3.84989" fill="#3A3A1F"></path><path d="M19.4933 3.03096L19.5211 0.329869L19.0991 0.149412V0.012264C19.8757 -0.0108345 20.5921 -0.000728908 20.5921 -0.000728908V0.143637L20.1643 0.315433L20.1335 3.09304L20.9262 3.1118L21.2485 2.50691H21.4566L21.3716 3.37311C21.3716 3.37311 20.0969 3.31825 19.0566 3.34568V3.21142L19.4933 3.03096Z" fill="#3A3A1F"></path><path d="M18.7401 3.19849L18.3342 3.09743L16.5936 0.253418L16.3474 0.296728L15.5899 3.59694L15.25 3.83081L15.272 3.96363L16.3797 3.70665L16.3533 3.57095L15.9372 3.46412L16.1276 2.45356L17.1474 2.26877L17.6441 3.15662L17.2939 3.39915L17.3203 3.53197L18.7591 3.33708L18.7401 3.19849ZM16.1701 2.20958L16.4309 0.999791L17.017 2.05655L16.1701 2.20958Z" fill="#3A3A1F"></path><path d="M14.7889 3.17538C14.5955 2.69031 14.1457 2.55605 13.4805 2.78992C14.0241 2.50119 14.26 2.08686 14.0885 1.66531C14.0517 1.56743 13.9931 1.4789 13.917 1.40621C13.841 1.33352 13.7494 1.27851 13.649 1.2452C13.4072 1.15714 13.1757 1.17447 12.8153 1.31739L11.2871 1.94249L11.3399 2.06953L11.7985 2.08108L12.8812 4.57862L12.556 4.89622L12.6043 5.02471L13.923 4.45735C14.3537 4.287 14.5706 4.14407 14.7186 3.92464C14.7907 3.81458 14.8348 3.68897 14.847 3.55851C14.8593 3.42805 14.8393 3.29661 14.7889 3.17538ZM12.3743 1.74904L12.6541 1.61623C13.0453 1.45742 13.3384 1.59457 13.4849 1.97137C13.5222 2.05367 13.5416 2.14279 13.5417 2.23295C13.5418 2.32311 13.5226 2.41228 13.4855 2.49466C13.4483 2.57704 13.3939 2.65079 13.3259 2.71112C13.2579 2.77144 13.1778 2.81698 13.0907 2.84478L12.8871 2.93284L12.3743 1.74904ZM14.1515 3.95351C14.0592 4.1152 13.9479 4.19605 13.6797 4.30143L13.501 4.38517L12.9662 3.14362L13.1992 3.03967C13.6548 2.86499 13.9948 2.99636 14.1603 3.40636C14.1996 3.49263 14.2192 3.58635 14.2177 3.6809C14.2162 3.77545 14.1936 3.86852 14.1515 3.95351Z" fill="#3A3A1F"></path><path d="M11.3248 3.6718C10.8207 2.85469 9.96948 2.59771 9.09769 3.14775C8.15412 3.74398 8.01053 4.71845 8.64202 5.60197C9.20319 6.39598 10.0779 6.61253 10.8647 6.09859C11.7277 5.55144 11.8742 4.56398 11.3248 3.6718ZM10.787 5.83729C10.3241 6.12602 9.66179 5.87627 9.12993 5.14144C8.59807 4.40662 8.57316 3.78152 9.16802 3.40905C9.72479 3.05969 10.3577 3.37152 10.7958 4.09479C11.2515 4.84549 11.2339 5.55144 10.787 5.83151V5.83729Z" fill="#3A3A1F"></path><path d="M7.68416 8.2696L5.75159 6.34232L5.32375 6.50978L5.22266 6.41161L6.29663 5.37939L6.39773 5.47035L6.22191 5.89189L8.18525 7.86249L8.7977 7.27348L8.58671 6.62527L8.73323 6.48091L9.28853 7.14355C9.28853 7.14355 8.44605 7.93323 7.60504 8.78788L7.50687 8.68682L7.68416 8.2696Z" fill="#3A3A1F"></path><path d="M6.29431 8.63436L7.05621 9.18007C6.93217 9.53309 6.76331 9.86925 6.55365 10.1805C5.93534 11.0467 5.05038 11.2113 4.18445 10.6136C3.31853 10.0159 3.02403 9.12954 3.78592 8.09876C4.00614 7.81924 4.25399 7.56197 4.52584 7.33074L4.59177 7.27588L5.26429 7.75373L5.11777 7.95873L4.44672 7.77538C4.35908 7.83194 4.2818 7.90272 4.21815 7.98472C3.56322 8.79172 3.76688 9.51933 4.5698 10.0694C5.28041 10.5588 6.013 10.4577 6.48186 9.80228C6.52822 9.74079 6.56115 9.6705 6.57856 9.59584L5.9163 9.12809L5.5207 9.36918L5.40495 9.29123L6.27673 8.11609L6.39395 8.19116L6.29431 8.63436Z" fill="#3A3A1F"></path><path d="M1.50998 14.4775L3.70775 15.1878L4.00079 14.863L4.13558 14.9077C4.01251 15.2672 3.89383 15.6295 3.77662 15.9905L3.64328 15.95C3.62863 15.8057 3.61691 15.6483 3.60372 15.4967L1.01035 14.671C0.907792 14.7922 0.80816 14.9135 0.707062 15.0348L0.572266 14.9929C0.676782 14.6685 0.781298 14.3447 0.885814 14.0213C1.79423 13.6931 2.70361 13.3847 3.61398 13.0959L1.77664 12.4477L1.47189 12.7769L1.33856 12.7307C1.47189 12.3568 1.60522 11.9814 1.74588 11.6133L1.87774 11.6624C1.87774 11.8183 1.88653 11.9742 1.89239 12.1316L4.80664 13.1695L4.71873 13.4092C3.64426 13.7403 2.57468 14.0964 1.50998 14.4775Z" fill="#3A3A1F"></path><path d="M0.413181 18.428L2.45125 18.6056C2.99483 18.6532 3.27028 18.4424 3.32156 17.9357C3.3544 17.7385 3.32204 17.536 3.22926 17.3582C3.10472 17.1533 2.91718 17.0695 2.54502 17.0219L0.578746 16.8125L0.354574 17.2269L0.208056 17.2124C0.254941 16.7909 0.303781 16.3703 0.354574 15.9507L0.501092 15.9666C0.542117 16.1196 0.581677 16.2741 0.622702 16.4256L2.49667 16.6408C2.96699 16.6956 3.24245 16.8573 3.41973 17.1735C3.56891 17.4592 3.62519 17.7833 3.5809 18.1017C3.50325 18.8972 3.08128 19.3086 2.39704 19.2567L0.356039 19.0935C0.28571 19.2379 0.209521 19.3823 0.146518 19.5266L0 19.518C0.0380947 19.0084 0.080585 18.5002 0.130401 17.992L0.276919 18.005L0.413181 18.4381" fill="#3A3A1F"></path><path d="M36.7821 29.3963C39.0839 27.4633 38.1081 23.5957 38.1081 23.5957C37.8443 24.8271 36.4671 27.0749 36.1389 27.7636C35.7184 28.6413 35.5733 29.662 35.4722 30.0734C35.3711 30.4849 35.2656 30.827 35.2656 30.827C35.4327 30.5917 36.3425 29.763 36.7821 29.3934" fill="#3A3A1F"></path><path d="M27.9488 37.0274C25.7129 36.1295 23.3833 34.9904 20.6844 35.5318C20.4151 35.5954 20.1405 35.635 19.8639 35.6502C19.5888 35.6353 19.3156 35.5957 19.0478 35.5318C16.3446 34.9904 14.0164 36.1295 11.7791 37.0274C10.1161 37.6294 7.91831 37.5342 6.45312 36.5987C7.17692 37.436 8.15273 37.96 9.15638 38.3094C11.023 38.9937 13.2398 38.5274 14.7841 37.5327C16.1028 36.8455 17.2486 35.4957 18.9921 36.0068C17.1927 36.7852 15.5454 37.8679 14.1248 39.2059L15.0435 39.9047C16.343 38.3365 17.9927 37.0855 19.8639 36.2493C21.7356 37.0848 23.3855 38.3359 24.6844 39.9047L25.606 39.2059C24.1841 37.8681 22.5359 36.7855 20.7357 36.0068C22.4793 35.4957 23.6206 36.8455 24.9437 37.5327C26.4924 38.5274 28.7063 38.9937 30.5729 38.3094C31.5766 37.96 32.5495 37.436 33.2762 36.5987C31.811 37.5327 29.6206 37.6294 27.9488 37.0318" fill="#3A3A1F"></path><path d="M31.5254 34.2267C32.9759 33.6666 34.6638 33.7864 35.9561 32.7831C37.3158 31.7249 38.6066 30.0806 38.8689 28.2096C37.9019 30.7533 35.4858 30.9655 33.8638 32.5175C33.5882 32.8139 33.2697 33.0688 32.9188 33.2739L32.8983 33.2508C33.2719 32.8582 33.7041 32.4106 33.9635 31.9039C34.9129 30.365 34.5774 28.2096 35.2821 26.5522C34.6345 27.4574 34.0499 28.3886 33.6616 29.4121C33.0756 31.0825 32.8587 32.9679 31.5195 34.2311" fill="#3A3A1F"></path><path d="M3.16203 29.3963C3.60159 29.7659 4.51 30.5946 4.67703 30.8299C4.67703 30.8299 4.57447 30.4921 4.4719 30.0763C4.36934 29.6605 4.22575 28.6413 3.80671 27.7664C3.47558 27.0749 2.09978 24.83 1.83751 23.5957C1.83751 23.5957 0.860233 27.4633 3.15617 29.3963" fill="#3A3A1F"></path><path d="M31.0864 36.4863C32.8841 36.4863 35.6284 35.6013 36.9617 33.2236C36.9617 33.2236 35.7984 34.9156 31.2988 34.9156C30.175 34.9156 28.0886 35.3487 28.0886 35.3487C27.978 35.3862 27.8578 35.3862 27.7472 35.3487C27.9978 35.2521 28.2567 35.1782 28.5208 35.1278C29.2534 34.9502 30.1003 34.5214 30.619 33.7664C31.3706 32.6822 32.2658 30.8791 32.4622 30.7578C30.8915 31.7193 29.8058 32.9031 28.386 34.0696C27.3062 34.9545 26.2469 35.1797 24.9883 35.4555C25.1051 35.4974 25.2289 35.517 25.3531 35.5132C26.5853 35.5132 28.5194 36.4834 31.0834 36.4834" fill="#3A3A1F"></path><path d="M14.5832 35.5131C14.7092 35.5134 14.834 35.4898 14.951 35.4438C13.6924 35.1681 12.6331 34.9429 11.5576 34.0579C10.1335 32.8943 9.04925 31.7105 7.47858 30.749C7.67198 30.8717 8.57014 32.6734 9.32031 33.7576C9.84045 34.5126 10.6844 34.9414 11.4199 35.119C11.6825 35.1696 11.94 35.2436 12.1891 35.3399C12.0805 35.3773 11.9622 35.3773 11.8536 35.3399C11.8536 35.3399 9.76572 34.9068 8.63021 34.9068C4.1321 34.9068 2.96875 33.2148 2.96875 33.2148C4.29767 35.5925 7.04342 36.4775 8.84559 36.4775C11.4097 36.4775 13.3437 35.5073 14.5759 35.5073" fill="#3A3A1F"></path><path d="M1.07031 28.2057C2.03587 30.7494 4.45048 30.9616 6.07244 32.5135C6.34924 32.8094 6.66805 33.0642 7.01895 33.27L7.03946 33.2469C6.66437 32.8543 6.23214 32.4067 5.97281 31.9C5.02484 30.361 5.36036 28.2057 4.65414 26.5483C5.29589 27.4535 5.88197 28.3847 6.2761 29.4082C6.85338 31.0785 7.07755 32.964 8.41966 34.2272C6.96766 33.667 5.27392 33.7869 3.98309 32.7835C2.62194 31.721 1.32525 30.0766 1.07031 28.2057Z" fill="#3A3A1F"></path><path d="M20.5097 23.7847C21.3976 23.7414 23.6789 23.5855 25.9778 22.7063C26.2898 22.5879 26.3602 22.4435 26.3616 22.2097C26.363 22.1463 26.3581 22.083 26.347 22.0205C26.1094 20.2544 25.6941 18.5158 25.1074 16.8306C25.0283 16.6054 24.9873 16.5664 24.9184 16.5664C24.8527 16.5718 24.7883 16.5879 24.728 16.614C23.387 17.0402 21.9914 17.276 20.583 17.3142C20.5304 17.3123 20.4781 17.3217 20.4296 17.3418C20.3812 17.3619 20.3377 17.3922 20.3024 17.4305C20.2671 17.4689 20.2407 17.5145 20.2252 17.5639C20.2096 17.6134 20.2052 17.6657 20.2123 17.717C20.2211 18.615 20.2401 20.0269 20.2401 21.931C20.2401 22.4132 20.2401 23.0585 20.2401 23.5263C20.2352 23.602 20.2547 23.6773 20.2958 23.7414C20.3266 23.762 20.3612 23.7765 20.3976 23.7839C20.4341 23.7914 20.4717 23.7916 20.5082 23.7847" fill="#3A3A1F"></path><path d="M15.0778 15.7175C15.0001 15.8835 15.0353 15.9355 15.0353 15.9355C15.0537 15.9608 15.0799 15.9795 15.11 15.9889C16.4366 16.3684 17.808 16.5742 19.1891 16.601C19.287 16.6115 19.3854 16.5853 19.4645 16.5274C19.5345 16.4345 19.5664 16.3191 19.5539 16.204C19.5876 14.4514 19.636 12.6295 19.7429 10.8423C19.1737 10.8216 18.6071 10.7545 18.0492 10.6416C16.8343 12.196 15.8351 13.903 15.0778 15.7175Z" fill="#3A3A1F"></path><path d="M19.5298 17.7092C19.5372 17.6581 19.5333 17.6061 19.5184 17.5566C19.5035 17.5072 19.4779 17.4615 19.4434 17.4227C19.4089 17.3839 19.3663 17.3529 19.3185 17.3318C19.2707 17.3107 19.2188 17.3001 19.1665 17.3006C17.7367 17.2423 16.3229 16.9812 14.9687 16.5254C14.9251 16.5078 14.8793 16.4962 14.8325 16.4907C14.7885 16.4907 14.7592 16.508 14.7226 16.6105C13.5504 19.5166 13.3131 22.6523 13.3131 22.6523C13.2999 22.7966 13.338 22.8284 13.4405 22.8746C15.2704 23.4901 17.1904 23.8056 19.124 23.8086C19.124 23.8086 19.3452 23.8086 19.4038 23.7466C19.4859 23.6672 19.4947 23.6022 19.4903 23.3539C19.5005 21.8048 19.5298 17.7092 19.5298 17.7092Z" fill="#3A3A1F"></path><path d="M26.1926 29.6779C25.9706 30.1314 25.7109 30.566 25.416 30.9772C26.931 30.2337 28.6585 28.7843 29.8247 27.2944C28.8794 28.0386 27.8353 28.6521 26.7215 29.1178C26.4876 29.2436 26.3018 29.4413 26.1926 29.6808" fill="#3A3A1F"></path><path d="M31.6841 21.8277C31.6852 22.6697 31.6012 23.5098 31.4336 24.3354C32.2878 22.8154 32.729 21.1037 32.7142 19.3663C32.7149 18.7777 32.6659 18.19 32.5676 17.6094C32.4517 18.2263 32.2249 18.8178 31.8981 19.3562C31.668 19.7301 31.5816 19.9885 31.605 20.2426C31.6783 21.0843 31.6812 21.8306 31.6812 21.8306" fill="#3A3A1F"></path><path d="M28.5981 12.5694C28.8208 12.0093 28.8618 11.2398 28.6245 10.6739C28.4003 10.1498 27.6853 9.62144 27.6853 9.62144C26.8051 8.96987 25.8384 8.4404 24.8121 8.04785C24.9163 8.21202 24.9726 8.40135 24.9747 8.595C24.9747 8.91549 24.8282 9.24032 24.5352 9.56803C25.923 10.3483 27.1666 11.3548 28.2128 12.5449C28.2128 12.5449 28.3783 12.7499 28.4721 12.7412C28.5424 12.734 28.5981 12.5694 28.5981 12.5694Z" fill="#3A3A1F"></path><path d="M12.8519 22.4133C12.9764 20.4658 13.5127 18.4057 14.2746 16.4553C14.2892 16.4229 14.2976 16.3882 14.2995 16.3528C14.2995 16.2936 14.2687 16.259 14.153 16.2084C12.9061 15.6685 11.9435 14.9351 11.3266 14.1354C11.3162 14.1244 11.3104 14.1099 11.3104 14.0949C11.3104 14.0799 11.3162 14.0655 11.3266 14.0545C11.3632 14.0242 11.4043 14.0632 11.4043 14.0632C12.1061 14.7417 13.1493 15.3062 14.3434 15.745C14.3808 15.7618 14.4211 15.7716 14.4621 15.7739C14.5134 15.7739 14.5559 15.7421 14.6394 15.5675C15.4209 13.7684 16.4499 12.0837 17.6972 10.5609C16.6921 10.3212 15.665 9.78849 15.4101 9.20237C15.4101 9.20237 15.3778 9.1374 15.4233 9.11286C15.4687 9.08832 15.5214 9.14895 15.5214 9.14895C16.6394 10.3429 19.8862 10.2635 19.8862 10.2635C21.243 10.2635 24.0576 9.79571 24.0576 8.67543C24.0576 7.6562 22.5646 7.12349 19.8525 7.0874C11.6475 7.0874 7.25195 14.0892 7.25195 19.6472C7.25195 26.3574 13.035 32.2071 19.706 32.2071C19.706 32.0988 19.621 30.6306 19.621 30.6306C19.6137 30.4689 19.5741 30.4155 19.3705 30.3924C19.3705 30.3924 16.4577 30.173 15.5009 29.6894C15.4643 29.6634 15.4848 29.6273 15.5346 29.6388C16.8019 29.8409 18.0824 29.9523 19.3661 29.9723C19.3954 29.9735 19.4247 29.9684 19.4519 29.9575C19.4791 29.9466 19.5036 29.93 19.5238 29.9089C19.5439 29.8878 19.5592 29.8627 19.5687 29.8353C19.5781 29.8079 19.5815 29.7788 19.5785 29.75C19.5785 29.5435 19.495 24.9859 19.495 24.9859C19.4818 24.6423 19.4276 24.5875 19.0935 24.5528C17.1285 24.4728 15.1923 24.0586 13.3705 23.3286C13.3251 23.3127 13.3017 23.3069 13.2812 23.3185C13.2607 23.33 13.2416 23.4094 13.2416 23.4094C13.157 24.7983 13.1864 26.1916 13.3295 27.5758C13.3383 27.6105 13.3295 27.6292 13.2914 27.6307C13.2533 27.6321 13.2445 27.5946 13.2445 27.5946C12.9308 26.3911 12.7757 25.1529 12.783 23.9104C12.783 23.8151 12.7918 23.2824 12.7918 23.2824C12.7945 23.2213 12.7781 23.1608 12.7448 23.1092C12.7116 23.0576 12.663 23.0172 12.6057 22.9937C11.8291 22.6063 11.0975 22.1367 10.4241 21.5933C10.4183 21.5879 10.4137 21.5814 10.4106 21.5742C10.4074 21.567 10.4058 21.5593 10.4058 21.5514C10.4058 21.5436 10.4074 21.5359 10.4106 21.5287C10.4137 21.5215 10.4183 21.515 10.4241 21.5096C10.4343 21.5023 10.4466 21.4984 10.4592 21.4984C10.4719 21.4984 10.4842 21.5023 10.4944 21.5096C11.199 21.9403 11.9414 22.308 12.7127 22.6082H12.8021C12.8475 22.5779 12.8475 22.5144 12.8548 22.4147" fill="#3A3A1F"></path><path d="M31.3096 18.4925C32.114 17.1109 32.114 15.9791 32.114 15.9791C32.1135 15.9187 32.1091 15.8584 32.1008 15.7986C31.7286 14.2222 30.8949 12.7294 29.61 11.3594C29.6307 11.4897 29.6405 11.6216 29.6393 11.7535C29.6348 12.2649 29.5225 12.7698 29.3096 13.2361C29.2456 13.3588 29.2067 13.4928 29.1953 13.6303C29.2061 13.7297 29.243 13.8248 29.3023 13.906C29.3023 13.906 30.5828 15.6384 31.3169 18.4925" fill="#3A3A1F"></path><path d="M30.7022 20.9683C30.7022 20.9264 30.6583 20.9683 30.6583 20.9683C29.8183 21.7368 28.8704 22.382 27.8436 22.8841C27.451 23.0847 27.4114 23.2276 27.4041 23.5611C27.4246 25.487 27.1887 26.9754 26.7653 28.2299C26.7653 28.2299 26.7286 28.318 26.8444 28.2602C26.9601 28.2025 28.733 27.3695 29.9447 26.1597C30.3875 25.7239 30.6683 25.1538 30.7418 24.5414C30.9821 22.4048 30.7022 20.9726 30.7022 20.9726" fill="#3A3A1F"></path><path d="M25.7425 29.5537C25.7425 29.5133 25.703 29.5205 25.703 29.5205C25.6216 29.5311 25.5415 29.5499 25.4641 29.5768C23.7976 30.0996 22.0627 30.3802 20.314 30.4098C20.1485 30.4098 20.1031 30.4632 20.0884 30.6567L19.9961 32.2014C21.6547 32.1861 23.2953 31.8613 24.8312 31.2442C25.1808 30.7713 25.471 30.2585 25.6956 29.7169C25.7208 29.6651 25.7386 29.6102 25.7484 29.5537" fill="#3A3A1F"></path><path d="M24.4336 15.836C24.5318 15.7985 24.5948 15.7725 24.627 15.6916C24.6354 15.6035 24.6197 15.5148 24.5816 15.4347C23.9017 13.7539 23.0218 12.1586 21.9604 10.6821C21.3327 10.7765 20.6993 10.8301 20.0645 10.8424C20.1201 12.6686 20.1656 14.4833 20.1919 16.2316C20.1919 16.3875 20.2212 16.4755 20.271 16.5203C20.3305 16.5612 20.4024 16.5806 20.4747 16.5752C21.6923 16.5752 23.4314 16.2056 24.4307 15.8374" fill="#3A3A1F"></path><path d="M25.7722 15.2717C26.4751 14.9177 27.1233 14.4671 27.6975 13.9334C27.7385 13.8991 27.7718 13.8568 27.7953 13.809C27.8188 13.7613 27.8319 13.7093 27.8337 13.6563C27.8217 13.5266 27.7707 13.4035 27.6872 13.3026C26.7163 11.9657 25.4979 10.8215 24.0961 9.93018C23.5938 10.2295 23.0455 10.4465 22.4727 10.5726C23.6134 11.9427 24.5698 13.4523 25.318 15.0638C25.3972 15.2313 25.4499 15.3266 25.5085 15.341C25.6026 15.3516 25.6973 15.3269 25.7737 15.2717" fill="#3A3A1F"></path><path d="M26.5255 23.9482C26.5255 23.9482 26.5329 23.6494 26.4259 23.5815C26.3189 23.5137 26.0874 23.6118 26.0874 23.6118C24.3167 24.2135 22.4613 24.5384 20.5886 24.5748C20.2209 24.5993 20.2399 24.683 20.2209 24.9703C20.2062 26.6608 20.1696 28.2561 20.1242 29.7012C20.1242 29.7012 20.1124 29.8456 20.1652 29.9033C20.2179 29.9611 20.3571 29.9408 20.3571 29.9408C22.2318 29.8296 24.0759 29.4201 25.8178 28.7282C26.0684 28.6228 26.1109 28.477 26.1783 28.1998C26.6369 26.3822 26.5255 23.9468 26.5255 23.9468" fill="#3A3A1F"></path><path d="M27.3622 21.9945C27.2801 21.9266 27.2508 21.6003 27.2508 21.6003C27.0218 19.8662 26.5841 18.1652 25.9468 16.5331C25.9134 16.4642 25.893 16.3898 25.8867 16.3136C25.8867 16.227 25.9307 16.152 26.1241 16.0523C26.9063 15.7026 27.6211 15.2219 28.2369 14.6318C28.3233 14.5452 28.3834 14.512 28.4185 14.5177C28.4508 14.5177 28.5079 14.561 28.5651 14.6693C29.3613 16.0435 29.9614 17.5194 30.3482 19.0552C30.3853 19.1934 30.4064 19.3353 30.4112 19.4781C30.4112 19.7048 30.3335 19.8535 30.1182 20.0556C29.3843 20.7583 28.5723 21.3772 27.6977 21.9006C27.6772 21.9122 27.4383 22.0551 27.368 21.9945" fill="#3A3A1F"></path></g></svg>