<svg xmlns:xlink="http://www.w3.org/1999/xlink" xmlns="http://www.w3.org/2000/svg" class="partnerLogo-0-3-195" width="40" height="34" viewBox="0 0 40 34" fill="none"><g fill="none"><path d="M13.9663 3.73097H14.8035C14.9282 3.72353 15.0531 3.74046 15.171 3.78077C15.2889 3.82108 15.3974 3.88397 15.4903 3.96577C15.5698 4.03426 15.6336 4.11852 15.6774 4.21297C15.7212 4.30742 15.744 4.4099 15.7443 4.51362C15.7526 4.62988 15.7327 4.74642 15.6861 4.85367C15.6395 4.96091 15.5675 5.0558 15.4761 5.13054C15.2505 5.3041 14.9677 5.39089 14.6812 5.37455H14.1779L15.589 7.21609V7.23911H16.224L15.1375 5.78429C15.4482 5.7631 15.7384 5.62441 15.9465 5.39757C16.1573 5.17075 16.2746 4.87547 16.2758 4.56887C16.2794 4.39602 16.2452 4.22442 16.1754 4.06559C16.1057 3.90677 16.0019 3.76441 15.8713 3.6481C15.5705 3.38522 15.1783 3.24517 14.7753 3.25677H13.4395V7.23911H13.9663V3.73097Z" fill="#3A3A1F"></path><path d="M11.698 7.23942H12.2107V3.73128H13.1232V3.25708H10.7949V3.73128H11.698V7.23942Z" fill="#3A3A1F"></path><path d="M21.5567 6.65445C21.5038 6.60941 21.4607 6.5544 21.43 6.4927C21.3993 6.431 21.3816 6.36389 21.3779 6.29535V3.2522H20.8605V6.22629C20.8536 6.36628 20.8778 6.50608 20.9313 6.63609C20.9848 6.7661 21.0664 6.88323 21.1705 6.97945C21.2746 7.07568 21.3988 7.14871 21.5344 7.19353C21.6701 7.23836 21.8141 7.25392 21.9565 7.23914H23.1653V6.77875H21.9565C21.8144 6.79341 21.6718 6.75565 21.5567 6.67287V6.65445Z" fill="#3A3A1F"></path><path d="M18.0439 5.48967L18.7401 3.91515L19.4174 5.48967H18.0439ZM17.8275 5.95006H19.6055L20.17 7.25756H20.7344L19.0035 3.28903V3.2522H18.4672L16.6657 7.16087L16.6328 7.23914H17.2631L17.8275 5.95006Z" fill="#3A3A1F"></path><path d="M8.06658 6.0378V6.09304C8.06374 6.25424 8.09485 6.41428 8.15797 6.56319C8.2211 6.7121 8.31488 6.84669 8.43347 6.95857C8.67179 7.1828 8.98954 7.30804 9.32012 7.30804C9.6507 7.30804 9.96844 7.1828 10.2068 6.95857C10.3253 6.85053 10.4192 6.71925 10.4825 6.57329C10.5457 6.42733 10.5768 6.26996 10.5737 6.11146C10.5717 5.83948 10.4729 5.57668 10.2943 5.36829C10.1158 5.1599 9.86857 5.01895 9.59528 4.9697L9.12491 4.82698C9.00055 4.80092 8.8897 4.73244 8.81215 4.63377C8.73461 4.5351 8.69542 4.41267 8.70158 4.28833C8.69749 4.20764 8.71232 4.12711 8.74493 4.0529C8.77754 3.97868 8.82707 3.91276 8.88973 3.86017C8.95214 3.80162 9.02594 3.75596 9.10675 3.7259C9.18756 3.69585 9.27372 3.68201 9.3601 3.68522C9.44066 3.68855 9.5197 3.7078 9.59245 3.74183C9.66521 3.77585 9.73017 3.82394 9.78343 3.88319C9.84063 3.93903 9.88526 4.00598 9.91442 4.07972C9.94358 4.15346 9.95665 4.23237 9.95276 4.31135V4.36659H10.489V4.31135C10.49 4.1667 10.4614 4.02332 10.4049 3.88968C10.3483 3.75604 10.265 3.63486 10.1597 3.5333C10.058 3.42612 9.93505 3.34027 9.79842 3.28092C9.66178 3.22157 9.51427 3.18996 9.3648 3.18801H9.34129C9.04323 3.18632 8.7563 3.29866 8.54166 3.50107C8.42912 3.59502 8.33947 3.7124 8.27924 3.84463C8.21902 3.97686 8.18975 4.12059 8.19358 4.26531C8.18284 4.49084 8.25046 4.71327 8.38542 4.89637C8.52038 5.07946 8.71472 5.21242 8.93677 5.27356L9.3601 5.39786C9.83047 5.54058 10.0515 5.77077 10.0609 6.10225C10.0689 6.19527 10.0566 6.28887 10.025 6.37694C9.99337 6.465 9.94311 6.54554 9.87751 6.61328C9.80974 6.67984 9.72905 6.73247 9.64019 6.76805C9.55134 6.80363 9.4561 6.82145 9.3601 6.82045C9.26371 6.82011 9.16843 6.8003 9.08021 6.76228C8.99199 6.72426 8.91274 6.66883 8.8474 6.59947C8.77866 6.5339 8.72472 6.45495 8.68908 6.36773C8.65343 6.2805 8.63686 6.18692 8.64044 6.09304V6.0378H8.06658Z" fill="#3A3A1F"></path><path d="M23.707 7.23914H24.2197V3.2522H23.707V7.23914Z" fill="#3A3A1F"></path><path d="M2.16892 5.48967L2.86507 3.89674L3.5424 5.48967H2.16892ZM1.95255 5.95006H3.73054L4.29499 7.23914H4.85943L3.12847 3.28903V3.2522H2.59225L0.790738 7.16087L0.757812 7.23914H1.41163L1.95255 5.95006Z" fill="#3A3A1F"></path><path d="M27.4311 5.48967H26.0576L26.7537 3.91515L27.4311 5.48967ZM27.003 3.2522H26.4809L24.6794 7.16087L24.6465 7.23914H25.2768L25.8412 5.95006H27.6192L28.1837 7.25756H28.7481L27.0171 3.28903V3.2522H27.003Z" fill="#3A3A1F"></path><path d="M31.6259 3.2522V6.37361L29.5045 3.2522H28.8789V7.23914H29.4057V3.99342L31.6165 7.23914H32.148V3.2522H31.6259Z" fill="#3A3A1F"></path><path d="M7.65255 5.92265V3.2478H7.13984V5.91344C7.14255 6.15528 7.04794 6.38846 6.87644 6.56258C6.79437 6.64595 6.69563 6.71187 6.58638 6.75623C6.47712 6.80059 6.3597 6.82243 6.24144 6.8204C6.11994 6.82318 5.99929 6.79989 5.88796 6.75217C5.77664 6.70445 5.67734 6.63345 5.59703 6.54417C5.42249 6.35007 5.32999 6.09822 5.33833 5.83978V3.2478H4.83033V5.90883C4.82677 6.0926 4.86071 6.27521 4.93017 6.44596C4.99963 6.61672 5.10321 6.77219 5.23485 6.90327C5.35979 7.03701 5.51159 7.14407 5.68074 7.21774C5.8499 7.29141 6.03278 7.33012 6.21792 7.33143V7.33143C6.40074 7.33581 6.58257 7.3038 6.75237 7.23732C6.92217 7.17084 7.0764 7.07129 7.20569 6.9447C7.34355 6.81629 7.45244 6.66107 7.52534 6.48902C7.59825 6.31696 7.63357 6.13188 7.62903 5.94566L7.65255 5.92265Z" fill="#3A3A1F"></path><path d="M21.5993 30.7744V21.4792L0 21.47L21.5993 30.7744Z" fill="#3A3A1F"></path><path d="M40.0004 3.18799L21.5996 30.7743V21.4791L40.0004 3.18799Z" fill="#3A3A1F"></path><path d="M13.7629 16.9578C13.7702 17.1611 13.7348 17.3637 13.6587 17.553C13.5827 17.7423 13.4676 17.9143 13.3207 18.0582C13.1779 18.2067 13.005 18.3243 12.813 18.4036C12.621 18.4829 12.4143 18.522 12.2059 18.5185H11.3122V15.4892H12.0931C12.5209 15.4825 12.9357 15.6337 13.2549 15.9128C13.4103 16.0418 13.536 16.2017 13.6236 16.3819C13.7112 16.5621 13.7586 16.7584 13.7629 16.9578ZM12.0319 15.0196H10.8184V18.9973H12.2295C12.4973 19 12.7628 18.9495 13.0102 18.849C13.2576 18.7486 13.4816 18.6001 13.6688 18.4127C13.8657 18.2318 14.0218 18.0126 14.1271 17.7692C14.2324 17.5258 14.2846 17.2636 14.2803 16.9993C14.2847 16.7324 14.2297 16.4678 14.1193 16.2237C14.0088 15.9797 13.8455 15.762 13.6406 15.5859C13.1991 15.201 12.6227 14.9981 12.0319 15.0196V15.0196Z" fill="#3A3A1F"></path><path d="M5.89885 17.1564C6.12524 16.911 6.24461 16.5887 6.23142 16.2584C6.21824 15.928 6.07355 15.6158 5.82829 15.3885C5.52403 15.1339 5.13219 15.0022 4.73233 15.0202H3.39648V18.9979H3.9233V15.4898H4.76055C4.88522 15.4823 5.01014 15.4993 5.12805 15.5396C5.24595 15.5799 5.35448 15.6428 5.44729 15.7246C5.52625 15.7933 5.58932 15.8777 5.63231 15.9722C5.6753 16.0666 5.69721 16.169 5.69659 16.2724C5.7075 16.3885 5.68919 16.5054 5.64327 16.6129C5.59736 16.7205 5.52522 16.8154 5.43318 16.8893C5.20817 17.0645 4.92537 17.153 4.63826 17.1379H4.13496L5.54607 18.9795V19.0025H6.18107L5.071 17.5477C5.37728 17.5249 5.66243 17.3862 5.86592 17.161L5.89885 17.1564Z" fill="#3A3A1F"></path><path d="M0.757812 15.4894H1.66092V18.9975H2.17362V15.4894H3.08143V15.0198H0.757812V15.4894Z" fill="#3A3A1F"></path><path d="M9.36937 17.2298H7.99589L8.68733 15.6553L9.36466 17.2298H9.36937ZM8.93663 15.0154H8.41922L6.61771 18.9195L6.58008 18.9977H7.21508L7.77482 17.6902H9.55281L10.122 18.9977H10.6817L8.93663 15.0476V15.0154Z" fill="#3A3A1F"></path><path d="M14.5243 16.0233V17.9891C14.5183 18.1279 14.5427 18.2663 14.596 18.395C14.6493 18.5238 14.7301 18.6398 14.8331 18.7354C14.9361 18.8309 15.0588 18.9038 15.1929 18.949C15.3271 18.9942 15.4696 19.0107 15.6109 18.9974H16.815V18.537H15.6109C15.4711 18.5501 15.3311 18.5142 15.2158 18.4357C15.11 18.34 15.046 18.2081 15.037 18.0674V17.2157H16.3682V16.7553H15.0511V15.9588C15.0608 15.8196 15.1248 15.6894 15.2299 15.5951C15.3436 15.5131 15.4844 15.4753 15.625 15.4892H16.8291V15.0289H15.6109C15.47 15.0156 15.328 15.032 15.1941 15.077C15.0603 15.1219 14.9378 15.1943 14.8349 15.2893C14.732 15.3844 14.6511 15.4999 14.5975 15.628C14.5439 15.7562 14.519 15.8941 14.5243 16.0325V16.0233Z" fill="#3A3A1F"></path><path d="M19.7289 17.1564C19.9375 16.9319 20.0547 16.6403 20.0582 16.3369C20.066 16.1594 20.0337 15.9825 19.9638 15.8186C19.8939 15.6547 19.788 15.5078 19.6537 15.3885C19.3494 15.1339 18.9576 15.0022 18.5577 15.0202H17.2266V18.9979H17.7487V15.4898H18.5859C18.7106 15.4823 18.8355 15.4993 18.9534 15.5396C19.0713 15.5799 19.1799 15.6428 19.2727 15.7246C19.3513 15.7938 19.4145 15.8782 19.4582 15.9725C19.5019 16.0668 19.5252 16.1689 19.5267 16.2724C19.5354 16.3887 19.5156 16.5054 19.469 16.6127C19.4224 16.72 19.3502 16.8148 19.2586 16.8893C19.0335 17.0645 18.7508 17.153 18.4636 17.1379H17.9603L19.3714 18.9795V19.0025H20.0064L18.8964 17.5477C19.2021 17.523 19.4866 17.3846 19.6913 17.161L19.7289 17.1564Z" fill="#3A3A1F"></path><path d="M13.8055 16.9995C13.8108 17.2091 13.7718 17.4175 13.6909 17.6117C13.6099 17.8058 13.4888 17.9814 13.3351 18.1275C13.1898 18.2766 13.0144 18.3945 12.8201 18.4738C12.6258 18.553 12.4167 18.5919 12.2062 18.5879H11.3172V15.5079H12.1169C12.5509 15.5002 12.9715 15.655 13.2928 15.9406C13.4502 16.0714 13.5773 16.2334 13.6657 16.416C13.7541 16.5986 13.8017 16.7975 13.8055 16.9995V16.9995ZM12.051 15.0475H10.8516V19.0482H12.2627C12.8029 19.0458 13.3202 18.8344 13.7017 18.4601C14.0833 18.0857 14.2981 17.5789 14.2994 17.0502C14.3023 16.779 14.2449 16.5106 14.1312 16.2633C14.0175 16.0161 13.8501 15.796 13.6408 15.6184C13.2016 15.2289 12.6245 15.0225 12.0322 15.0429L12.051 15.0475Z" fill="#3A3A1F"></path><path d="M0.757812 15.5079H1.66562V19.0574H2.1454V15.5079H3.05792V15.0613H0.757812V15.5079Z" fill="#3A3A1F"></path><path d="M14.5825 16.0789V18.0724C14.5757 18.2103 14.5994 18.3481 14.6519 18.4763C14.7044 18.6044 14.7844 18.7201 14.8866 18.8153C14.9888 18.9105 15.1107 18.9831 15.2441 19.0281C15.3775 19.0731 15.5192 19.0894 15.6596 19.0761H16.8403V18.6157H15.6455C15.5012 18.6307 15.3565 18.5911 15.241 18.5052C15.13 18.4085 15.0623 18.2728 15.0529 18.1277V17.2529H16.3934V16.7925H15.0529V15.9961C15.0623 15.8509 15.13 15.7152 15.241 15.6186C15.3565 15.5326 15.5012 15.4931 15.6455 15.5081H16.8403V15.0477H15.6455C15.5039 15.0367 15.3615 15.0558 15.2281 15.1037C15.0947 15.1515 14.9734 15.2269 14.8725 15.3248C14.7716 15.4227 14.6935 15.5408 14.6434 15.6709C14.5934 15.801 14.5726 15.9402 14.5825 16.0789V16.0789Z" fill="#3A3A1F"></path><path d="M18.9754 17.5843C19.2762 17.5602 19.556 17.4233 19.7562 17.2022C19.9655 16.9763 20.0827 16.683 20.0854 16.3781C20.0932 16.2011 20.0614 16.0245 19.9923 15.8607C19.9233 15.697 19.8186 15.5499 19.6856 15.4297C19.3838 15.1738 18.9934 15.0404 18.5944 15.0568H17.2773V19.0575H17.7712V15.508H18.6273C18.884 15.4945 19.1357 15.5805 19.3282 15.7474C19.412 15.8244 19.4789 15.9175 19.5246 16.0208C19.5703 16.1242 19.5938 16.2356 19.5938 16.3482C19.5938 16.4608 19.5703 16.5722 19.5246 16.6755C19.4789 16.7788 19.412 16.8719 19.3282 16.949C19.101 17.1311 18.8123 17.2231 18.5191 17.2068H18.0487L19.4599 19.0483H20.0572L18.9425 17.5797L18.9754 17.5843Z" fill="#3A3A1F"></path><path d="M5.8937 17.202C6.10169 16.9756 6.21723 16.6823 6.21826 16.3779C6.22625 16.2012 6.19507 16.025 6.12686 15.8613C6.05866 15.6976 5.95505 15.5503 5.82315 15.4295C5.52055 15.1748 5.1307 15.0415 4.73189 15.0566H3.41016V19.0573H3.90404V15.5077H4.75541C4.88271 15.499 5.01049 15.5158 5.13098 15.5569C5.25147 15.5981 5.36214 15.6628 5.45626 15.7471C5.54013 15.8242 5.60697 15.9173 5.65266 16.0206C5.69836 16.1239 5.72193 16.2354 5.72193 16.3479C5.72193 16.4605 5.69836 16.5719 5.65266 16.6753C5.60697 16.7786 5.54013 16.8717 5.45626 16.9488C5.23103 17.131 4.94368 17.2231 4.65193 17.2066H4.18156L5.59267 19.0481H6.19004L5.07526 17.5795H5.11759C5.42152 17.5567 5.70468 17.4198 5.90781 17.1974L5.8937 17.202Z" fill="#3A3A1F"></path><path d="M9.40914 17.3035H7.99804L8.713 15.6507L9.40914 17.3035ZM8.46841 15.0522L6.63867 19.0576H7.24074L7.80519 17.7317H9.6067L10.1758 19.0576H10.7074L8.93878 15.0522H8.46841Z" fill="#3A3A1F"></path><path d="M17.0655 10.1443V12.1378C17.0588 12.284 17.0842 12.4299 17.14 12.5657C17.1959 12.7014 17.2809 12.8239 17.3892 12.9247C17.4976 13.0255 17.6268 13.1024 17.7682 13.1501C17.9095 13.1978 18.0597 13.2153 18.2085 13.2013H19.4597V12.6304H18.2085C18.0796 12.643 17.9502 12.6121 17.8416 12.543C17.7445 12.4535 17.6843 12.3323 17.6723 12.2023V11.3966H19.0128V10.8211H17.6723V10.0937C17.6837 9.96486 17.7441 9.8449 17.8416 9.75762C17.9484 9.68427 18.0788 9.65153 18.2085 9.66554H19.4597V9.08085H18.2085C18.0597 9.06686 17.9095 9.08432 17.7682 9.13204C17.6268 9.17976 17.4976 9.25664 17.3892 9.35747C17.2809 9.4583 17.1959 9.58073 17.14 9.71648C17.0842 9.85224 17.0588 9.99815 17.0655 10.1443V10.1443Z" fill="#3A3A1F"></path><path d="M14.1016 9.64709H15.0094V13.2013H15.6162V9.64709H16.5287V9.08081H14.1016V9.64709Z" fill="#3A3A1F"></path><path d="M0.757812 9.64709H1.66092V13.2013H2.2677V9.64709H3.18021V9.08081H0.757812V9.64709Z" fill="#3A3A1F"></path><path d="M9.60545 11.8153C9.60775 11.9309 9.58648 12.0459 9.54287 12.1534C9.49925 12.2609 9.43418 12.3588 9.35145 12.4414C9.27409 12.5213 9.18065 12.5847 9.07703 12.6275C8.9734 12.6703 8.86184 12.6916 8.74938 12.69C8.63355 12.693 8.51851 12.6706 8.4127 12.6244C8.30689 12.5782 8.21299 12.5094 8.1379 12.423C7.9713 12.2325 7.88399 11.9876 7.8933 11.737V9.06679H7.29123V11.8291C7.28792 12.0185 7.32277 12.2066 7.39379 12.3828C7.46481 12.5589 7.57062 12.7197 7.70516 12.8558C7.83726 12.9902 7.99581 13.097 8.17123 13.1698C8.34665 13.2426 8.53532 13.2798 8.72586 13.2793H8.74938C8.9407 13.2805 9.13027 13.2435 9.30654 13.1707C9.48282 13.0979 9.64213 12.9907 9.77478 12.8558C9.91682 12.7211 10.029 12.5591 10.1042 12.3801C10.1795 12.2011 10.2163 12.0088 10.2122 11.8153V9.05298H9.60545V11.8153V11.8153Z" fill="#3A3A1F"></path><path d="M22.8836 11.0879C22.8928 11.2881 22.8596 11.4881 22.7859 11.6751C22.7122 11.8621 22.5998 12.0321 22.4556 12.1744C22.3199 12.323 22.1529 12.4411 21.9662 12.5206C21.7794 12.6001 21.5773 12.639 21.3737 12.6348H20.5224V9.6331H21.2561C21.6759 9.62774 22.0823 9.77732 22.3944 10.052C22.5415 10.1808 22.6593 10.3382 22.7403 10.5143C22.8213 10.6903 22.8637 10.881 22.8648 11.0741L22.8836 11.0879ZM21.195 9.08063H19.9297V13.2241H21.3925C21.9564 13.2241 22.4972 13.0049 22.8959 12.6146C23.2946 12.2244 23.5186 11.6951 23.5186 11.1432C23.5242 10.8654 23.4687 10.5896 23.3559 10.3346C23.2431 10.0797 23.0756 9.85139 22.8648 9.66532C22.4134 9.27025 21.8237 9.06082 21.2185 9.08063H21.195Z" fill="#3A3A1F"></path><path d="M12.4977 10.8162L12.0273 10.6689C11.9092 10.6496 11.8031 10.587 11.7305 10.4937C11.658 10.4005 11.6245 10.2837 11.6369 10.1671C11.633 10.0911 11.6466 10.0152 11.6767 9.94508C11.7068 9.87494 11.7527 9.81234 11.811 9.76195C11.8669 9.70856 11.9332 9.66671 12.006 9.63889C12.0787 9.61107 12.1565 9.59784 12.2346 9.59999C12.3127 9.60214 12.3895 9.61962 12.4606 9.65139C12.5316 9.68317 12.5954 9.72859 12.6482 9.78497C12.7009 9.83763 12.7419 9.9004 12.7687 9.96933C12.7954 10.0383 12.8072 10.1119 12.8034 10.1855V10.2868H13.4337V10.1901C13.4325 9.87832 13.3051 9.57973 13.0794 9.35969C12.8537 9.13966 12.5481 9.01612 12.2296 9.01612C11.9122 9.01486 11.6062 9.13171 11.3735 9.343C11.2563 9.44393 11.1631 9.56879 11.1005 9.70879C11.038 9.84879 11.0075 10.0005 11.0113 10.1533C11.0035 10.3902 11.077 10.6229 11.2203 10.8141C11.3636 11.0052 11.5683 11.1438 11.8015 11.2076L12.2296 11.3365C12.6717 11.47 12.8881 11.6864 12.8975 12.004C12.8988 12.0952 12.8813 12.1858 12.8459 12.2702C12.8106 12.3546 12.7581 12.4311 12.6918 12.4952C12.6254 12.5593 12.5465 12.6096 12.4598 12.643C12.3731 12.6765 12.2804 12.6925 12.1873 12.69C12.0047 12.6828 11.8322 12.6061 11.7065 12.4763C11.5809 12.3464 11.512 12.1737 11.5146 11.9948V11.8935H10.8984V11.9948C10.898 12.2478 10.9739 12.4952 11.1166 12.7062C11.2593 12.9171 11.4625 13.082 11.7006 13.1804C11.9387 13.2787 12.2012 13.3061 12.4551 13.259C12.7091 13.2118 12.9431 13.0924 13.128 12.9156C13.2516 12.8012 13.3491 12.6624 13.4139 12.5085C13.4788 12.3545 13.5096 12.1889 13.5043 12.0224C13.506 11.7392 13.4063 11.4643 13.2224 11.2456C13.0385 11.0269 12.782 10.8782 12.4977 10.8254V10.8162Z" fill="#3A3A1F"></path><path d="M6.30773 11.3232C6.52697 11.0876 6.64929 10.7809 6.6511 10.4623C6.66151 10.2765 6.62932 10.0907 6.55689 9.91865C6.48445 9.74658 6.37361 9.59255 6.23247 9.46785C5.92169 9.20046 5.51689 9.06179 5.10359 9.08113H3.7207V13.2246H4.33689V9.63359H5.12711C5.36964 9.62219 5.60728 9.70303 5.79033 9.85918C5.86469 9.92582 5.92401 10.0069 5.96451 10.0973C6.00501 10.1877 6.02579 10.2853 6.02551 10.384C6.03526 10.4951 6.01723 10.6067 5.97297 10.7094C5.92872 10.8121 5.85957 10.9027 5.77151 10.9733C5.55654 11.1427 5.28503 11.228 5.00951 11.2127H4.41215L5.92203 13.1878H6.66991L5.54573 11.7053C5.83991 11.6667 6.11024 11.5263 6.30773 11.3094V11.3232Z" fill="#3A3A1F"></path></g></svg>