<svg xmlns:xlink="http://www.w3.org/1999/xlink" xmlns="http://www.w3.org/2000/svg" class="partnerLogo-0-3-195" width="40" height="40" viewBox="0 0 40 40" fill="none"><g fill="none"><path d="M22.7994 0.0986328C15.0235 0.0986328 12.2768 12.2648 9.72348 22.068C8.79501 21.1306 5.95159 18.26 5.95159 18.2795C5.3713 17.7132 4.71364 17.8889 4.32678 18.299C3.92057 18.7091 3.86254 19.4707 4.32678 19.9199C4.34612 19.9394 8.17604 23.7865 9.5107 25.1144C9.87822 25.4659 10.4005 25.6807 10.9421 25.3683C11.4837 25.0363 11.5611 24.4309 11.5804 24.4309C16.1067 3.92618 20.1687 2.40297 22.7994 2.40297C25.0238 2.40297 27.5771 4.04335 27.5771 7.34363C30.8847 7.34363 32.9544 11.718 30.2851 14.4129C32.4902 15.4869 33.4767 16.8149 33.4767 18.4748C33.4767 20.1542 32.084 21.8532 30.053 21.8532C28.0413 21.8532 27.0161 20.5448 25.4494 20.5448C24.7337 20.5448 24.3081 21.1306 24.3081 21.6969V25.8369H21.3293V21.7165C21.3293 21.072 20.8457 20.5643 20.2654 20.5643C20.2654 20.5643 20.014 20.5643 20.014 20.5838L16.0486 21.072C15.5651 21.1501 15.1202 21.6774 15.1202 22.2047C15.1202 22.8296 15.6424 23.3568 16.3388 23.3568C16.4355 23.3568 16.5516 23.3568 16.5322 23.3373L19.0468 23.0053V27.1063C19.0468 27.614 19.6271 28.1217 20.1494 28.1217H25.43C26.049 28.1217 26.5712 27.5945 26.5712 26.9696V23.2397C27.6738 23.9232 29.2019 24.177 29.995 24.177C32.9544 24.177 35.7785 21.8336 35.7592 18.3967C35.7398 15.2917 33.38 13.7294 33.38 13.7294C34.7727 9.99948 32.5289 6.40627 29.6081 5.41033C28.5829 1.58278 25.3333 0.0986328 22.7994 0.0986328Z" fill="#3A3A1F"></path><path d="M22.7994 0.0986328C15.0235 0.0986328 12.2768 12.2648 9.72348 22.068C8.79501 21.1306 5.95159 18.26 5.95159 18.2795C5.3713 17.7132 4.71364 17.8889 4.32678 18.299C3.92057 18.7091 3.86254 19.4707 4.32678 19.9199C4.34612 19.9394 8.17604 23.7865 9.5107 25.1144C9.87822 25.4659 10.4005 25.6807 10.9421 25.3683C11.4837 25.0363 11.5611 24.4309 11.5804 24.4309C16.1067 3.92618 20.1687 2.40297 22.7994 2.40297C25.0238 2.40297 27.5771 4.04335 27.5771 7.34363C30.8847 7.34363 32.9544 11.718 30.2851 14.4129C32.4902 15.4869 33.4767 16.8149 33.4767 18.4748C33.4767 20.1542 32.084 21.8532 30.053 21.8532C28.0413 21.8532 27.0161 20.5448 25.4494 20.5448C24.7337 20.5448 24.3081 21.1306 24.3081 21.6969V25.8369H21.3293V21.7165C21.3293 21.072 20.8457 20.5643 20.2654 20.5643C20.2654 20.5643 20.014 20.5643 20.014 20.5838L16.0486 21.072C15.5651 21.1501 15.1202 21.6774 15.1202 22.2047C15.1202 22.8296 15.6424 23.3568 16.3388 23.3568C16.4355 23.3568 16.5516 23.3568 16.5322 23.3373L19.0468 23.0053V27.1063C19.0468 27.614 19.6271 28.1217 20.1494 28.1217H25.43C26.049 28.1217 26.5712 27.5945 26.5712 26.9696V23.2397C27.6738 23.9232 29.2019 24.177 29.995 24.177C32.9544 24.177 35.7785 21.8336 35.7592 18.3967C35.7398 15.2917 33.38 13.7294 33.38 13.7294C34.7727 9.99948 32.5289 6.40627 29.6081 5.41033C28.5829 1.58278 25.3333 0.0986328 22.7994 0.0986328Z" fill="#3A3A1F"></path><path d="M19.4918 32.692C19.4918 33.6489 20.5556 34.2348 22.3158 35.0745C23.7085 35.7384 24.5016 36.4219 24.5016 36.9883C24.5016 37.8866 23.5345 38.2185 22.6253 38.2185C21.2326 38.2185 20.4009 37.6522 19.9367 36.4024L19.898 36.3048H19.7819C19.5304 36.3048 19.337 36.3243 19.2403 36.4415C19.1436 36.5782 19.1629 36.7344 19.2016 36.9101L19.5111 38.199C19.5885 38.5115 19.7045 38.5701 20.2075 38.6677C20.4202 38.7068 21.5615 38.902 22.5093 38.902C25.1786 38.902 26.3779 37.8085 26.3779 36.7149C26.3779 35.9337 25.6042 35.1721 23.9213 34.3324L23.1669 33.9614C22.0257 33.4146 21.3293 33.0826 21.3293 32.4967C21.3293 31.9304 22.045 31.5399 23.0702 31.5399C24.4049 31.5399 24.7724 32.3015 24.9271 32.9459L24.9658 33.0631H25.1012C25.3914 33.0631 25.5848 33.0435 25.7009 32.9264C25.7589 32.8483 25.7976 32.7701 25.7782 32.653L25.6815 31.5399C25.6428 31.1883 25.372 31.1298 25.0045 31.0516C24.5596 30.9735 24.018 30.8759 23.2056 30.8759C20.8651 30.8564 19.4918 31.5399 19.4918 32.692Z" fill="#3A3A1F"></path><path d="M27.1895 34.9571C27.1895 36.9099 28.8723 38.8823 32.0832 38.8823C33.7081 38.8823 34.6172 38.5112 35.2942 38.1402L35.4683 38.0425L35.1781 37.7106L35.1975 37.7301C35.1201 37.6324 35.0621 37.6129 34.9653 37.6129L34.8106 37.6715C34.5591 37.7887 33.8241 38.1402 32.4701 38.1402C30.8066 38.1402 29.027 37.0466 29.027 34.6446C29.027 32.3598 30.9613 31.5591 32.6248 31.5591C33.8241 31.5591 34.4431 31.9888 34.5785 32.8675L34.5978 33.0042H34.7526C34.888 33.0042 35.2748 33.0042 35.2748 32.7113V31.3834C35.2748 31.0514 34.9073 31.0123 34.7526 30.9928L34.5978 30.9733C34.211 30.9147 33.8435 30.8757 32.8763 30.8757C29.5686 30.8561 27.1895 32.5746 27.1895 34.9571Z" fill="#3A3A1F"></path><path d="M15.0821 30.9541L12.1806 30.9736L10.2463 30.9346H9.95616C9.78207 30.9346 9.66602 31.0517 9.66602 31.247C9.66602 31.3251 9.66602 31.5985 9.99485 31.5985C11.1554 31.5985 11.2135 31.6962 11.2135 32.1453L11.2328 32.4382L11.2521 33.6295V36.2072C11.2521 36.6368 11.2328 37.3203 11.2135 37.8671C11.2135 38.0233 11.1941 38.1796 10.1689 38.1796C9.87879 38.1796 9.7047 38.2382 9.7047 38.5311C9.7047 38.6092 9.7047 38.8435 9.9755 38.8435H10.0335C10.1496 38.8435 10.4784 38.824 12.1032 38.824C13.8248 38.824 14.1729 38.8435 14.289 38.8435H14.347C14.5791 38.8435 14.7726 38.824 14.7726 38.5311C14.7726 38.2186 14.5211 38.1796 14.0762 38.1796C13.051 38.1796 13.0317 38.0233 13.0317 37.8671C13.0124 37.3594 12.993 36.6759 12.993 36.2072V35.2699H13.8634C15.1981 35.2699 15.3335 35.3089 15.5269 36.3439C15.585 36.5587 15.7591 36.5978 15.9138 36.5978C16.2233 36.5978 16.262 36.422 16.262 36.3439L16.2426 35.9533C16.2233 35.7385 16.204 35.4651 16.204 35.0746V33.4928C16.204 33.2584 15.9138 33.2584 15.7591 33.2584C15.5076 33.2584 15.4496 33.4147 15.2948 34.1763C15.2175 34.4692 14.6759 34.6254 13.7861 34.6254H13.0124V32.3016C13.0124 31.6766 13.1284 31.6571 13.2638 31.6571C13.7667 31.6376 15.0047 31.5985 15.3722 31.5985C15.7204 31.5985 16.0492 31.6766 16.262 31.8133C16.9196 32.2234 17.2485 32.4968 17.4612 32.6726C17.6547 32.8288 17.7707 32.9265 17.9255 32.9265C18.0222 32.9265 18.293 32.9265 18.293 32.6921C18.293 32.6335 18.2737 32.5749 18.1769 32.3797C18.0802 32.1453 17.8868 31.7548 17.6547 31.1494C17.5967 30.9541 17.3645 30.9541 16.9583 30.9541H15.0821Z" fill="#3A3A1F"></path><path d="M35.3706 1.11465C34.9644 0.70456 34.4808 0.509277 33.9392 0.509277C33.3976 0.509277 32.8947 0.724089 32.5078 1.11465C32.1016 1.50522 31.9082 1.99343 31.9082 2.55975C31.9082 3.12607 32.1016 3.61428 32.5078 4.00484C32.8947 4.41494 33.3783 4.61022 33.9392 4.61022C34.5002 4.61022 34.9837 4.39541 35.3706 4.00484C35.7768 3.61428 35.9702 3.12607 35.9702 2.55975C35.9702 1.99343 35.7768 1.50522 35.3706 1.11465ZM33.5137 2.36447V1.93484H33.8038C34.0746 1.93484 34.152 1.9739 34.1713 1.99343C34.21 2.03248 34.2294 2.09107 34.2294 2.14965C34.2294 2.22777 34.21 2.26682 34.1713 2.30588C34.1326 2.32541 34.0359 2.36447 33.8425 2.36447H33.533H33.5137ZM33.5137 3.73145V2.85267H33.6104C33.7071 2.85267 33.7845 2.8722 33.8425 2.91126C33.8618 2.91126 33.9779 3.02843 34.3261 3.67286L34.3648 3.73145H34.9064C34.6356 3.96579 34.3261 4.08296 33.9392 4.08296C33.5717 4.08296 33.2622 3.96579 32.9721 3.73145H33.5137ZM35.0031 3.63381L34.9837 3.65333L34.6936 3.16513C34.5582 2.96984 34.4615 2.83315 34.3648 2.7355C34.4808 2.69645 34.5582 2.63786 34.6356 2.55975C34.7516 2.44258 34.8097 2.28635 34.8097 2.1106C34.8097 1.9739 34.7516 1.8372 34.6743 1.72003C34.5969 1.60286 34.4808 1.52475 34.3261 1.50522C34.21 1.46616 34.0359 1.44664 33.8038 1.44664H32.9721V3.73145C32.9334 3.71192 32.914 3.67286 32.8754 3.63381C32.5852 3.34088 32.4305 2.96984 32.4305 2.55975C32.4305 2.13013 32.5852 1.77862 32.8754 1.48569C33.1655 1.19277 33.533 1.03654 33.9392 1.03654C34.3454 1.03654 34.7129 1.19277 35.0031 1.48569C35.2932 1.79815 35.448 2.13013 35.448 2.55975C35.448 2.98937 35.2932 3.34088 35.0031 3.63381Z" fill="#3A3A1F"></path></g></svg>