<svg xmlns:xlink="http://www.w3.org/1999/xlink" xmlns="http://www.w3.org/2000/svg" class="partnerLogo-0-3-195" width="40" height="43" viewBox="0 0 40 43" fill="none"><path fill-rule="evenodd" clip-rule="evenodd" d="M15.8037 17.1697C18.989 17.1697 21.6341 14.9708 22.3047 12.0391V12.0574H25.7135C25.0056 16.8398 20.8145 20.5046 15.7664 20.5046C15.0958 20.5046 14.4439 20.4496 13.8105 20.3213V16.8765C14.4439 17.0597 15.1145 17.1697 15.8037 17.1697ZM24.447 13.2303H24.2235L24.0372 13.7617L24.2049 13.8899L24.0745 14.2747L22.8823 13.3219L23.0313 12.8821L24.5774 12.8271L24.447 13.2303ZM23.3294 13.2303L23.7951 13.5784L23.9068 13.2303H23.3294ZM22.4912 14.2014L23.7765 14.8427L23.9442 14.5129L22.6589 13.8716L22.4912 14.2014ZM23.1244 15.8872L21.9136 15.1177L22.1185 14.8062L23.0498 15.4108L23.3665 14.9344L23.6459 15.1177L23.1244 15.8872ZM22.4722 16.327L22.6771 16.4002L22.9379 16.1071L21.5036 15.5757L21.2056 15.9238L21.932 17.2431L22.2115 16.9316L22.0997 16.7484L22.4722 16.327ZM21.932 16.4552L21.634 15.9788L22.1742 16.1804L21.932 16.4552ZM21.4297 17.5916L20.9454 17.3534L20.7964 17.4634L21.0944 17.8482L20.7964 18.068L19.9209 16.932L20.4983 16.5105C20.7591 16.3273 21.0199 16.3823 21.1876 16.5838C21.3366 16.7854 21.2993 16.9686 21.2248 17.0969L21.7836 17.3351L21.4297 17.5916ZM20.8709 16.822C20.815 16.7487 20.7219 16.7487 20.6287 16.8037L20.3866 16.9869L20.5729 17.2252L20.815 17.0419C20.9081 16.9869 20.9454 16.8953 20.8709 16.822ZM19.2686 17.6462L19.8088 18.6174L20.1254 18.4341L19.5852 17.463L19.9392 17.2797L19.7901 17.0049L18.7656 17.5546L18.9146 17.8294L19.2686 17.6462ZM17.9461 19.1123L18.0393 18.7825C18.1697 18.8375 18.3559 18.8741 18.5422 18.8192C18.654 18.7825 18.7285 18.7092 18.6912 18.6359C18.6736 18.5667 18.5728 18.5792 18.436 18.5963L18.4118 18.5993C18.1697 18.6359 17.8344 18.6726 17.7226 18.3428C17.6481 18.1229 17.7599 17.848 18.1138 17.7381C18.3373 17.6648 18.5422 17.6648 18.7285 17.7381L18.6167 18.0496C18.4677 17.9946 18.3001 17.9946 18.1697 18.0496C18.0765 18.0862 18.0393 18.1412 18.0579 18.1962C18.0765 18.2511 18.1883 18.2511 18.3373 18.2328C18.5795 18.1962 18.9148 18.1595 19.0265 18.471C19.1197 18.7459 18.9893 18.9841 18.6167 19.1123C18.3373 19.2223 18.1138 19.204 17.9461 19.1123ZM16.1577 18.1591L16.2695 18.9836C16.3067 19.3318 16.5675 19.5517 17.0332 19.4601C17.4803 19.4051 17.6665 19.1302 17.6107 18.7821L17.4989 17.9575L17.1263 18.0125L17.2381 18.8371C17.2567 19.002 17.1822 19.1486 16.9773 19.1669C16.791 19.2035 16.6607 19.0936 16.642 18.9287L16.5303 18.1041L16.1577 18.1591ZM15.7107 19.3502L15.7666 19.5518L16.195 19.5701L15.7107 18.1409L15.245 18.1226L14.6489 19.5152L15.0774 19.5335L15.1519 19.3319L15.7107 19.3502ZM15.245 19.0204L15.4499 18.489L15.6176 19.0387L15.245 19.0204Z" fill="#3A3A1F"></path><path d="M15.3945 40.7525C15.3945 40.1112 15.8788 39.6714 16.5122 39.6714C16.9406 39.6714 17.22 39.8913 17.369 40.1478L17.0524 40.3127C16.9406 40.1478 16.7357 40.0012 16.5122 40.0012C16.0837 40.0012 15.7671 40.3127 15.7671 40.7708C15.7671 41.2106 16.0837 41.5404 16.5122 41.5404C16.7357 41.5404 16.9406 41.4121 17.0524 41.2289L17.369 41.3938C17.2014 41.6503 16.9406 41.8702 16.5122 41.8702C15.8975 41.8519 15.3945 41.4121 15.3945 40.7525Z" fill="#3A3A1F"></path><path d="M17.8535 41.8152V39.708H19.3251V40.0378H18.2261V40.5875H19.2878V40.9174H18.2261V41.5037H19.3251V41.8335H17.8535V41.8152Z" fill="#3A3A1F"></path><path d="M21.1698 41.8152L20.7041 41.0273H20.3315V41.8152H19.959V39.708H20.8904C21.3188 39.708 21.5982 39.9829 21.5982 40.3677C21.5982 40.7525 21.356 40.954 21.0953 40.9907L21.6168 41.8152H21.1698ZM21.207 40.3677C21.207 40.1661 21.058 40.0378 20.8345 40.0378H20.3315V40.7158H20.8531C21.058 40.6975 21.207 40.5692 21.207 40.3677Z" fill="#3A3A1F"></path><path d="M22.566 41.8152V40.0378H21.9141V39.708H23.5905V40.0378H22.9386V41.8152H22.566Z" fill="#3A3A1F"></path><path d="M24.168 41.8152V39.708H24.5405V41.8152H24.168Z" fill="#3A3A1F"></path><path d="M25.248 41.8152V39.708H26.7196V40.0378H25.6206V40.5875H26.6824V40.9174H25.6206V41.8335H25.248V41.8152Z" fill="#3A3A1F"></path><path d="M27.3164 41.8152V39.708H27.689V41.8152H27.3164Z" fill="#3A3A1F"></path><path d="M28.3965 41.8152V39.708H29.8681V40.0378H28.769V40.5875H29.8308V40.9174H28.769V41.5037H29.8681V41.8335H28.3965V41.8152Z" fill="#3A3A1F"></path><path d="M30.5195 41.8152V39.708H31.3205C31.9911 39.708 32.4382 40.1478 32.4382 40.7708C32.4382 41.3938 31.9911 41.8152 31.3205 41.8152H30.5195ZM32.047 40.7525C32.047 40.3493 31.7862 40.0195 31.3205 40.0195H30.8921V41.4671H31.3205C31.7676 41.4854 32.047 41.1556 32.047 40.7525Z" fill="#3A3A1F"></path><path fill-rule="evenodd" clip-rule="evenodd" d="M26.441 12.0391H31.3959C32.8116 12.0391 33.9851 13.1934 33.9851 14.586V29.3365C33.9851 30.7291 32.8116 31.8835 31.3959 31.8835H17.5185H16.4008H13.793V22.0987H13.8116V21.0176C14.4449 21.1459 15.0969 21.2009 15.7675 21.2009C21.2253 21.2009 25.7332 17.2063 26.441 12.0391ZM21.1511 26.2586C24.7835 20.3584 31.8992 16.1807 31.8992 16.1807C31.8992 16.1807 32.1413 16.8953 31.0982 17.9764C30.9171 18.1607 30.6835 18.3899 30.4114 18.6568C29.0878 19.9549 26.8533 22.1465 25.3237 24.4263C24.6709 25.4015 24.1851 26.1985 23.7821 26.8597C22.966 28.1986 22.4895 28.9804 21.6541 29.5569C21.6541 29.5569 20.4619 29.7951 19.8286 29.4836C19.3815 28.2742 18.5433 27.2298 17.9472 26.6068C17.9286 26.5793 17.9053 26.5518 17.882 26.5243C17.8587 26.4968 17.8354 26.4694 17.8168 26.4419C17.7631 26.3664 17.6809 26.2847 17.5976 26.2019C17.4788 26.0837 17.3577 25.9633 17.3139 25.8555C17.2952 25.8372 17.2952 25.8372 17.2952 25.8189C17.0531 25.0676 18.7668 24.0232 19.4001 24.0781C20.3129 24.1697 20.8717 25.3974 21.1511 26.2586Z" fill="#3A3A1F"></path><path d="M5.70784 10.6101C5.70784 5.14965 10.2157 0.733663 15.7667 0.733663C21.3176 0.733663 25.8069 5.14965 25.8069 10.6101C25.8069 11.1048 25.7696 11.5812 25.6951 12.0393H26.4216C26.4775 11.5629 26.5147 11.0865 26.5147 10.6101C26.5147 4.76485 21.6902 0.019043 15.748 0.019043C9.80588 0.019043 5 4.76485 5 10.6101C5 15.7957 8.8 20.12 13.8108 21.0179V20.3033C9.19118 19.4054 5.70784 15.4109 5.70784 10.6101Z" fill="#3A3A1F"></path><path fill-rule="evenodd" clip-rule="evenodd" d="M22.2299 10.6097C22.2299 7.12824 19.3426 4.28809 15.8034 4.28809C12.2642 4.28809 9.37695 7.12824 9.37695 10.6097C9.37695 14.0912 12.2642 16.9314 15.8034 16.9314C19.3426 16.9314 22.2299 14.0912 22.2299 10.6097ZM20.4228 9.32711C19.3797 8.74076 18.2062 8.5392 17.0699 8.70411C17.0699 8.66201 17.0719 8.61794 17.0739 8.57319V8.57318C17.0781 8.48158 17.0824 8.38715 17.0699 8.30099C17.0326 7.32984 16.7719 6.37701 16.2689 5.55245L16.1758 5.38754L15.9895 5.40586C13.2513 5.77233 11.2768 8.20937 11.3513 11.0862C11.3699 11.8558 11.5562 12.607 11.8728 13.3033L11.8728 13.3033C11.9287 13.4316 11.9846 13.5599 12.0591 13.6698C12.2454 13.9447 12.6552 14.1462 12.9905 14.2745C13.363 14.4211 13.7356 14.5127 14.1268 14.5677C14.3689 14.6043 14.6111 14.6226 14.8532 14.6226C16.5856 14.6226 18.3179 13.7797 19.4542 12.2589C20.0317 11.471 20.4042 10.5548 20.5346 9.62029L20.5532 9.43705L20.4228 9.32711ZM15.8964 5.99222C16.2875 6.70684 16.4924 7.49475 16.5297 8.31931V8.81405C15.263 9.12555 14.0895 9.87682 13.2326 11.0129C12.8228 11.5626 12.5062 12.2039 12.3199 12.8452C12.0964 12.2772 11.966 11.6725 11.9473 11.0679C11.8542 8.55752 13.5493 6.41366 15.8964 5.99222ZM16.4366 9.4004C16.1013 11.361 14.667 12.9369 12.767 13.3583C12.916 12.6437 13.2326 11.9474 13.6797 11.3427C14.4062 10.3716 15.3748 9.71191 16.4366 9.4004ZM19.0258 11.9291C17.6473 13.7981 15.2817 14.5127 13.2699 13.7981C15.263 13.1934 16.7346 11.416 17.0326 9.27214C18.0199 9.10723 19.063 9.25381 19.9758 9.73023C19.8454 10.5181 19.5101 11.2694 19.0258 11.9291Z" fill="#3A3A1F"></path><path d="M12.3776 18.0495C12.0236 18.5259 11.5207 18.6175 11.1481 18.361C10.8687 18.1594 10.8315 17.8662 10.8874 17.628L11.2785 17.6464C11.2599 17.7746 11.2785 17.9395 11.3903 18.0128C11.5952 18.1594 11.8746 18.0678 12.0423 17.8113C12.2285 17.5731 12.2099 17.2799 12.0236 17.1333C11.9305 17.0783 11.8001 17.06 11.7256 17.06L11.6325 17.1699L11.9119 17.3715L11.6697 17.7197L11.0736 17.2982L11.5021 16.6935C11.7628 16.6019 12.0236 16.6202 12.2658 16.7851C12.6383 17.06 12.7315 17.5731 12.3776 18.0495Z" fill="#3A3A1F"></path><path d="M10.9617 17.2066C10.5706 17.6097 10.0304 17.6464 9.69507 17.3349C9.35978 17.0234 9.39703 16.492 9.80684 16.0889C10.2166 15.6858 10.7382 15.6308 11.0735 15.9606C11.3902 16.2904 11.3715 16.8035 10.9617 17.2066ZM10.0863 16.3821C9.86272 16.6019 9.82547 16.8768 9.99311 17.0417C10.1794 17.2066 10.4588 17.1516 10.6637 16.9318C10.8686 16.7119 10.9245 16.437 10.7568 16.2721C10.5892 16.1072 10.3098 16.1622 10.0863 16.3821Z" fill="#3A3A1F"></path><path d="M9.69436 16.0155C9.24731 16.3636 8.70711 16.3453 8.4277 15.9971C8.14828 15.649 8.24142 15.1359 8.68848 14.7878C9.13554 14.4396 9.65711 14.458 9.95515 14.8061C10.2532 15.1542 10.1414 15.6673 9.69436 16.0155ZM8.94927 15.081C8.70711 15.2642 8.61397 15.539 8.78162 15.7223C8.93064 15.9238 9.22868 15.8872 9.47084 15.704C9.71299 15.5207 9.80613 15.2459 9.63848 15.0443C9.47083 14.8611 9.1728 14.8977 8.94927 15.081Z" fill="#3A3A1F"></path><path d="M9.5259 14.1647L7.88669 15.0809L7.57002 14.5312C7.32786 14.1281 7.47688 13.6517 7.99845 13.3768C8.50139 13.102 8.98571 13.2119 9.22786 13.615L9.5259 14.1647ZM8.18473 13.725C7.92394 13.8715 7.79355 14.0914 7.94257 14.3296L8.07296 14.5495L8.9857 14.0548L8.87394 13.8532C8.72492 13.615 8.42688 13.5967 8.18473 13.725Z" fill="#3A3A1F"></path><path d="M8.74343 12.4241L6.88068 12.7539L6.67578 11.6912L7.08559 11.6179L7.21598 12.3142L7.51402 12.2592L7.38362 11.5812L7.79343 11.5079L7.92382 12.1859L8.24049 12.1309L8.1101 11.4346L8.5199 11.3613L8.74343 12.4241Z" fill="#3A3A1F"></path><path d="M8.522 10.2068L7.44161 10.8481L8.54063 10.8298V11.2146L6.65925 11.2512V10.8665L7.68376 10.2435L6.64062 10.2618V9.87698L8.522 9.84033V10.2068Z" fill="#3A3A1F"></path><path d="M8.63166 9.41896L6.67578 9.6022L6.76892 9.18076L8.16598 9.08914L6.91794 8.44781L7.01108 8.02637L8.74343 8.94255L8.63166 9.41896Z" fill="#3A3A1F"></path><path d="M8.83782 8.46586L7.10547 7.73291L7.25449 7.38477L8.98684 8.11771L8.83782 8.46586Z" fill="#3A3A1F"></path><path d="M9.45241 7.11037L8.78182 7.03708L8.68869 7.20199L9.24751 7.49517L9.06124 7.82499L7.38477 6.96378L7.73869 6.30413C7.88771 6.01096 8.223 5.97431 8.53967 6.13922C8.83771 6.28581 8.91222 6.50569 8.89359 6.65228L9.65731 6.70725L9.45241 7.11037ZM8.35339 6.50569C8.24163 6.45072 8.12986 6.48737 8.09261 6.57899L7.94359 6.85384L8.29751 7.03708L8.44653 6.76222C8.50241 6.6706 8.48379 6.56066 8.35339 6.50569Z" fill="#3A3A1F"></path><path d="M8.91263 6.17538C8.46557 5.82723 8.37243 5.31417 8.67047 4.9477C8.96851 4.59955 9.49008 4.58123 9.93714 4.92938C10.3842 5.27753 10.4773 5.79059 10.1793 6.13873C9.88126 6.50521 9.34106 6.52353 8.91263 6.17538ZM9.67635 5.24088C9.4342 5.05764 9.15479 5.02099 8.98714 5.22255C8.83812 5.40579 8.91263 5.68064 9.15479 5.8822C9.39694 6.06544 9.67635 6.10209 9.844 5.90053C9.99302 5.69897 9.89988 5.42411 9.67635 5.24088Z" fill="#3A3A1F"></path><path d="M11.4637 4.89283L10.3088 4.41641L10.9608 5.27762L10.6441 5.49751L9.50781 4.0133L9.82448 3.77509L10.9421 4.23318L10.3274 3.40862L10.6441 3.17041L11.7804 4.65462L11.4637 4.89283Z" fill="#3A3A1F"></path><path d="M13.0469 3.99521L12.5067 2.91412L12.693 4.16013L12.544 4.23342L11.6685 3.29892L12.2087 4.38001L11.8548 4.54492L11.0352 2.87747L11.5195 2.63927L12.2459 3.40886L12.0969 2.38274L12.5812 2.14453L13.4008 3.81198L13.0469 3.99521Z" fill="#3A3A1F"></path><path d="M13.5319 3.812L13.1035 2.0163L14.1839 1.75977L14.277 2.16288L13.5878 2.3278L13.6623 2.60265L14.3516 2.43774L14.4447 2.84086L13.7555 3.00577L13.83 3.31727L14.5192 3.15236L14.6123 3.55548L13.5319 3.812Z" fill="#3A3A1F"></path><path d="M15.7485 3.48206L15.0593 2.43761L15.1152 3.50038L14.724 3.5187L14.6309 1.66802L15.022 1.6497L15.674 2.63917L15.6367 1.61305L16.0279 1.59473L16.1211 3.44541L15.7485 3.48206Z" fill="#3A3A1F"></path><path d="M16.4941 3.537L16.6804 2.10776L16.252 2.05279L16.3078 1.63135L17.5372 1.77794L17.4814 2.19938L17.0716 2.14441L16.8853 3.57365L16.4941 3.537Z" fill="#3A3A1F"></path><path d="M18.1705 3.88517V3.61032L17.5931 3.44541L17.4441 3.68361L17.0156 3.55535L18.096 1.94287L18.5617 2.07114L18.5803 4.01344L18.1705 3.88517ZM18.2078 2.45593L17.8166 3.07893L18.1892 3.18888L18.2078 2.45593Z" fill="#3A3A1F"></path><path d="M18.6172 4.05L19.4741 2.40088L19.828 2.56579L19.176 3.84844L19.7162 4.12329L19.5299 4.48977L18.6172 4.05Z" fill="#3A3A1F"></path><path d="M20.6096 4.01362C21.038 3.6105 21.5596 3.59217 21.8762 3.922C22.137 4.17853 22.0811 4.49003 21.9694 4.72824L21.5968 4.61829C21.6713 4.49003 21.6713 4.30679 21.5782 4.19685C21.4106 4.01362 21.1125 4.06859 20.889 4.27015C20.6655 4.47171 20.6096 4.76488 20.7958 4.94812C20.889 5.05806 21.0753 5.05806 21.2243 4.98477L21.3174 5.35124C21.0753 5.44286 20.7586 5.4795 20.4978 5.22297C20.1625 4.9298 20.1998 4.41674 20.6096 4.01362Z" fill="#3A3A1F"></path><path d="M21.6909 6.52384L22.287 6.06575L21.9144 5.57102L21.3183 6.02911L21.0762 5.71761L22.5664 4.58154L22.8085 4.89304L22.2497 5.31449L22.6223 5.80922L23.1811 5.38778L23.4232 5.69928L21.933 6.83534L21.6909 6.52384Z" fill="#3A3A1F"></path><path d="M22.7711 6.48722C23.2741 6.21237 23.7956 6.30399 24.0192 6.70711C24.2427 7.11022 24.0564 7.58664 23.5721 7.86149C23.0692 8.13635 22.5476 8.04473 22.3241 7.64161C22.0819 7.25681 22.2682 6.76208 22.7711 6.48722ZM23.3672 7.53167C23.628 7.38508 23.7584 7.12855 23.6466 6.90867C23.5162 6.68878 23.2368 6.67046 22.976 6.81705C22.7153 6.96364 22.5849 7.22017 22.6966 7.44005C22.8084 7.65993 23.0878 7.67826 23.3672 7.53167Z" fill="#3A3A1F"></path><path d="M22.6406 8.41127L24.4475 7.87988L24.5593 8.24635L22.7524 8.77774L22.6406 8.41127Z" fill="#3A3A1F"></path><path d="M23.7391 8.68573C24.3166 8.59411 24.7637 8.88729 24.8195 9.32706C24.8754 9.6752 24.6519 9.91341 24.4284 10.0417L24.1862 9.7485C24.3352 9.6752 24.4284 9.52862 24.4097 9.40035C24.3725 9.16214 24.1117 9.03388 23.8137 9.07053C23.5156 9.10717 23.2921 9.32705 23.3293 9.56526C23.348 9.71185 23.497 9.80347 23.646 9.84011L23.497 10.1883C23.2362 10.1333 22.9568 9.9867 22.9009 9.62023C22.8264 9.16214 23.1617 8.75903 23.7391 8.68573Z" fill="#3A3A1F"></path><path d="M22.957 10.3534L24.8384 10.2251L24.9129 11.3062L24.4845 11.3245L24.4472 10.6282L24.1492 10.6465L24.1864 11.3428L23.758 11.3612L23.7208 10.6649L23.4041 10.6832L23.4413 11.3795L23.0129 11.3978L22.957 10.3534Z" fill="#3A3A1F"></path><path d="M18.2623 35.8237C18.4113 35.8237 18.5231 35.9336 18.5231 36.0619V37.8392C18.5231 37.9125 18.4858 37.9675 18.4486 38.0042C17.9084 38.5905 17.1447 38.9387 16.2878 38.9387C14.6672 38.9387 13.3633 37.656 13.3633 36.0619C13.3633 34.4677 14.6858 33.1851 16.2878 33.1851C17.0888 33.1851 17.8339 33.5149 18.3741 34.0463C18.4672 34.1562 18.4672 34.3028 18.3741 34.3944C18.2623 34.5044 18.1133 34.5044 18.0201 34.3944C17.5545 33.9546 16.9584 33.6798 16.3064 33.6798C14.9652 33.6798 13.8849 34.7609 13.8849 36.0619C13.8849 37.3812 14.9466 38.4439 16.3064 38.4439C16.977 38.4439 17.5731 38.1691 18.0201 37.7293V36.3184H16.3064C16.1574 36.3184 16.0456 36.2084 16.0456 36.0619C16.0456 35.9153 16.1574 35.8053 16.3064 35.8053H18.2623V35.8237Z" fill="#3A3A1F"></path><path d="M19.7159 33.551C19.7159 33.4044 19.8277 33.2944 19.9767 33.2944H23.5531C23.7022 33.2944 23.8139 33.4044 23.8139 33.551C23.8139 33.6976 23.7022 33.8075 23.5531 33.8075H20.2375V35.0535C20.2375 35.2001 20.1257 35.31 19.9767 35.31C19.8277 35.31 19.7159 35.2001 19.7159 35.0535V33.551ZM19.9767 35.8231H23.0316C23.1806 35.8231 23.2924 35.933 23.2924 36.0796C23.2924 36.2262 23.1806 36.3361 23.0316 36.3361H20.2188V38.3334H23.5345C23.6649 38.3334 23.7953 38.4434 23.7953 38.5899C23.7953 38.7365 23.6835 38.8465 23.5345 38.8465H19.958C19.809 38.8465 19.6973 38.7365 19.6973 38.5899V36.0979C19.7159 35.933 19.8277 35.8231 19.9767 35.8231Z" fill="#3A3A1F"></path><path d="M29.1983 34.3942C29.0865 34.4858 28.9375 34.4858 28.8444 34.3942C28.3787 33.9544 27.7826 33.6796 27.1306 33.6796C25.7895 33.6796 24.7091 34.7607 24.7091 36.08C24.7091 37.3992 25.7708 38.462 27.1306 38.462C27.8012 38.462 28.3973 38.1872 28.8444 37.7657C28.9375 37.6741 29.1051 37.6741 29.1983 37.7657C29.2914 37.8573 29.2914 38.0222 29.1983 38.1139C28.6395 38.6453 27.913 38.9568 27.112 38.9384C25.4914 38.9384 24.1875 37.6558 24.1875 36.0616C24.1875 34.4675 25.51 33.1665 27.112 33.1665C27.913 33.1665 28.6581 33.4963 29.1983 34.0277C29.2728 34.1377 29.2914 34.3026 29.1983 34.3942Z" fill="#3A3A1F"></path><path d="M32.0847 34.1376L30.1475 38.7368C30.1102 38.8284 30.0171 38.8834 29.9053 38.8834C29.7563 38.8834 29.6445 38.7735 29.6445 38.6452C29.6445 38.6086 29.6445 38.5719 29.6632 38.5353L31.8426 33.3863C31.8798 33.2947 31.973 33.2397 32.0661 33.2397C32.1779 33.2397 32.2524 33.2947 32.2896 33.3863L33.5377 36.3364C33.5563 36.3731 33.5563 36.3914 33.5563 36.4464C33.5563 36.593 33.4445 36.6846 33.2955 36.6846C33.1837 36.6846 33.1092 36.6296 33.0534 36.538L32.0847 34.1376ZM33.7053 37.0694C33.7985 37.0694 33.8916 37.1427 33.9288 37.216L34.4877 38.5169C34.5063 38.5536 34.5063 38.5719 34.5063 38.6269C34.5063 38.7735 34.3945 38.8651 34.2455 38.8651C34.1337 38.8651 34.0592 38.8101 34.0034 38.7185L33.5377 37.5641H31.4141C31.2651 37.5641 31.1534 37.4542 31.1534 37.3076C31.1534 37.161 31.2651 37.0511 31.4141 37.0511H33.7053V37.0694Z" fill="#3A3A1F"></path></svg>